HIERARCHY
ROOT ui
{
	 OFFSET 0 0 0
	 CHANNELS 3 XPosition YPosition Z Position
	 EndSite
	 {
	 OFFSET 0 -1 0
	 }
}
ROOT li
{
	 OFFSET 0 0 0
	 CHANNELS 3 XPosition YPosition Z Position
	 EndSite
	 {
	 OFFSET 0 -1 0
	 }
}
ROOT ul
{
	 OFFSET 0 0 0
	 CHANNELS 3 XPosition YPosition Z Position
	 EndSite
	 {
	 OFFSET 0 -1 0
	 }
}
ROOT ll
{
	 OFFSET 0 0 0
	 CHANNELS 3 XPosition YPosition Z Position
	 EndSite
	 {
	 OFFSET 0 -1 0
	 }
}
ROOT tt
{
	 OFFSET 0 0 0
	 CHANNELS 3 XPosition YPosition Z Position
	 EndSite
	 {
	 OFFSET 0 -1 0
	 }
}
ROOT tb
{
	 OFFSET 0 0 0
	 CHANNELS 3 XPosition YPosition Z Position
	 EndSite
	 {
	 OFFSET 0 -1 0
	 }
}
ROOT td
{
	 OFFSET 0 0 0
	 CHANNELS 3 XPosition YPosition Z Position
	 EndSite
	 {
	 OFFSET 0 -1 0
	 }
}
ROOT v
{
	 OFFSET 0 0 0
	 CHANNELS 3 XPosition YPosition Z Position
	 EndSite
	 {
	 OFFSET 0 -1 0
	 }
}
ROOT bn
{
	 OFFSET 0 0 0
	 CHANNELS 3 XPosition YPosition Z Position
	 EndSite
	 {
	 OFFSET 0 -1 0
	 }
}
MOTION
Frames: 24
Frame Time: 0.002
0.005095441818237304	-0.00699562406539917	0		0.4776920776367187	-2.337334716796875	0		-0.9923564453125	0.210930419921875	0		-0.705032958984375	-2.724357421875	0		2.23589599609375	-0.273819091796875	0		3.7542001953125	0.08551551818847657	0		4.86099169921875	-0.054251304626464845	0		5.97570849609375	0.45094015502929685	0		-0.04110321807861328	6.00364892578125	0		
0.0035077459812164306	8.488150238990784E-4	0		0.4779054260253906	-2.337535888671875	0		-0.99207421875	0.21076904296875	0		-0.7126253662109375	-2.712392578125	0		2.232097900390625	-0.277999267578125	0		3.758580322265625	0.09115715026855468	0		4.8612666015625	-0.05457085418701172	0		5.9759970703125	0.45059048461914064	0		-0.007550501823425293	6.0099013671875	0		
0.005688583850860596	-0.007443809032440186	0		0.530039306640625	-2.345689697265625	0		-0.9966834106445313	0.21461775207519532	0		-0.6686353149414063	-2.72838037109375	0		2.222613525390625	-0.26614492797851563	0		3.763762939453125	0.08272250366210937	0		4.85646435546875	-0.06186249160766601	0		5.9763251953125	0.45018585205078127	0		-0.007087750911712647	6.0096416015625	0		
0.006039217948913574	-0.00777000617980957	0		0.44947103881835937	-2.337650146484375	0		-0.9963280639648437	0.21431285095214844	0		-0.7131148681640626	-2.714928466796875	0		2.2409560546875	-0.266824462890625	0		3.750117431640625	0.08255457305908204	0		4.8568134765625	-0.06229179382324219	0		5.976685546875	0.4497327575683594	0		-0.022777009963989257	5.99958935546875	0		
-0.008360652923583985	0.005097307205200195	0		0.4788012390136719	-2.3385380859375	0		-0.9910162963867187	0.20986021423339843	0		-0.7476970825195313	-2.70970654296875	0		2.2264150390625	-0.2619964294433594	0		3.760255859375	0.06793230438232421	0		4.86303515625	-0.07186670684814453	0		5.96905419921875	0.44837481689453124	0		-0.005140879154205322	6.0079130859375	0		
0.013928105354309082	-0.0017156120538711548	0		0.4631118469238281	-2.341711181640625	0		-1.0574730224609374	0.21857672119140625	0		-0.728345947265625	-2.710458251953125	0		2.237025634765625	-0.2496407928466797	0		3.79103857421875	0.08992284393310547	0		4.867546875	-0.0654470977783203	0		5.98645263671875	0.44755743408203125	0		-0.004657494068145752	6.00747412109375	0		
0.014330345153808594	-0.0022000958919525145	0		0.51058251953125	-2.337003173828125	0		-0.9860103149414062	0.2208931427001953	0		-0.7388369750976562	-2.70274755859375	0		2.25050830078125	-0.24537342834472656	0		3.769257568359375	0.078771484375	0		4.8631025390625	-0.05690375137329102	0		5.96986279296875	0.4472938232421875	0		-0.040214626312255856	6.00560400390625	0		
-0.007164668083190918	0.003652137041091919	0		0.4819668884277344	-2.337034912109375	0		-0.9947442626953125	0.21253384399414063	0		-0.6814852294921875	-2.705236083984375	0		2.264006103515625	-0.24013685607910157	0		3.769657470703125	0.0782182388305664	0		4.8813623046875	-0.0657719955444336	0		5.97414599609375	0.4396551818847656	0		-0.006668106079101562	6.01051806640625	0		
0.007995141983032226	-0.01015428352355957	0		0.5072504272460937	-2.343015380859375	0		-1.0002731323242187	0.2170880126953125	0		-0.7530186157226563	-2.69955712890625	0		2.23661474609375	-0.2272241516113281	0		3.77900634765625	0.07549430084228516	0		4.87074755859375	-0.0661602554321289	0		5.9616533203125	0.44629473876953124	0		-0.006255081176757812	6.0099658203125	0		
-0.05940042495727539	0.00442997407913208	0		0.45572982788085936	-2.335703857421875	0		-0.9940034790039063	0.21141328430175782	0		-0.7038275146484375	-2.709965576171875	0		2.264744140625	-0.24127767944335937	0		3.779362060546875	0.07491469573974609	0		4.88794677734375	-0.07603022766113281	0		5.97487060546875	0.4374913940429688	0		-0.005891269207000733	6.0093916015625	0		
-0.0020397748947143554	0.005868534088134766	0		0.48504837036132814	-2.336785888671875	0		-0.9845509643554687	0.21866835021972655	0		-0.7363796997070312	-2.702992919921875	0		2.2475087890625	-0.2155574493408203	0		3.792762939453125	0.07911214447021485	0		4.8865380859375	-0.06057599639892578	0		5.9674619140625	0.45305035400390625	0		-0.0055693039894104	6.00980322265625	0		
0.0012866920232772827	0.00822336483001709	0		0.48737106323242185	-2.3354111328125	0		-0.9901902465820313	0.22317092895507812	0		-0.6631846923828125	-2.709835205078125	0		2.305828369140625	-0.21412838745117188	0		3.807036376953125	0.07830103302001953	0		4.888541015625	-0.07717389678955078	0		5.97961376953125	0.44528659057617187	0		-0.005327284812927246	6.0092099609375	0		
-0.005598400115966797	7.51662015914917E-4	0		0.4746954650878906	-2.33177783203125	0		-0.9940265502929687	0.21863873291015626	0		-0.7565382690429687	-2.68683349609375	0		2.306063720703125	-0.21469979858398439	0		3.812217041015625	0.07465825653076172	0		4.88877490234375	-0.07772214508056641	0		5.9718271484375	0.44388470458984375	0		-0.005147860050201416	6.00861767578125	0		
-0.005406530857086181	1.6659800708293914E-4	0		0.4749156494140625	-2.332357177734375	0		-0.9938373413085938	0.21804167175292968	0		-0.686460205078125	-2.696619384765625	0		2.29546435546875	-0.2030710906982422	0		3.7975634765625	0.0833738555908203	0		4.89996630859375	-0.07843522644042969	0		5.972013671875	0.44337222290039063	0		-0.006994565963745117	6.01006640625	0		
-0.005254249095916748	-4.0638598799705504E-4	0		0.45903726196289063	-2.33664990234375	0		-1.0606956787109374	0.21759466552734374	0		-0.7462756958007812	-2.697180908203125	0		2.30683935546875	-0.19079859924316406	0		3.784563232421875	0.07408075714111328	0		4.89323974609375	-0.07181619262695313	0		5.96802392578125	0.43495849609375	0		-0.004967106819152832	6.00745947265625	0		
0.006046881198883056	0.009848700523376466	0		0.45646664428710937	-2.321149169921875	0		-0.974460205078125	0.22355598449707031	0		-0.702016845703125	-2.69249951171875	0		2.3220751953125	-0.18457022094726563	0		3.839754638671875	0.07765515899658203	0		4.91431982421875	-0.07464297485351562	0		5.97226708984375	0.4424383544921875	0		0.026412336349487305	6.028373046875	0		
0.0020617239475250243	0.005381948947906494	0		0.45659475708007813	-2.321675537109375	0		-0.98029638671875	0.22810260009765626	0		-0.748687744140625	-2.681251953125	0		2.3105537109375	-0.16185934448242187	0		3.792961181640625	0.08499281311035156	0		4.90443896484375	-0.07291200256347656	0		5.96334228515625	0.4421734619140625	0		-0.0059761061668395996	6.007384765625	0		
0.0021139349937438967	0.004869997978210449	0		0.47274465942382815	-2.319449951171875	0		-0.984316162109375	0.2236383819580078	0		-0.7245314331054687	-2.679187255859375	0		2.310609375	-0.16232260131835938	0		3.8210078125	0.08408573913574219	0		4.90652685546875	-0.07135477447509765	0		5.96338525390625	0.4417872314453125	0		-0.040147403717041015	6.0014501953125	0		
-0.004978964805603028	-0.0024976389408111572	0		0.4458577575683594	-2.3174697265625	0		-0.9793817138671875	0.21804562377929687	0		-0.76139208984375	-2.676063720703125	0		2.314721923828125	-0.15782809448242188	0		3.806897216796875	0.07592002868652344	0		4.9004013671875	-0.08063226318359375	0		5.963400390625	0.4414298095703125	0		-0.0412361946105957	6.00197900390625	0		
-0.004979052066802978	-0.002959829092025757	0		0.4817339782714844	-2.32852978515625	0		-0.9793865966796875	0.2175620880126953	0		-0.7464034423828125	-2.6807958984375	0		2.32494384765625	-0.1454105682373047	0		3.830010498046875	0.08215108489990235	0		4.91036767578125	-0.08315596008300781	0		5.968525390625	0.4490125732421875	0		-0.041367790222167966	6.00151611328125	0		
0.002116353988647461	0.003484405994415283	0		0.44798712158203124	-2.3153828125	0		-1.05133544921875	0.2223208465576172	0		-0.7423002319335937	-2.677316650390625	0		2.3289921875	-0.1418646240234375	0		3.81097265625	0.08111916351318359	0		4.92061669921875	-0.06765701293945313	0		5.963359375	0.44079144287109373	0		-0.007423492908477783	6.0065029296875	0		
0.002076190948486328	0.003074445962905884	0		0.4749420471191406	-2.319238525390625	0		-0.9743912353515625	0.22058857727050782	0		-0.7402496337890625	-2.675776611328125	0		2.329393798828125	-0.11622856903076172	0		3.848128173828125	0.09216431427001953	0		4.93230615234375	-0.08416215515136719	0		5.96844384765625	0.44842333984375	0		-0.007591934204101563	6.0060927734375	0		
0.002021660089492798	0.002691092014312744	0		0.447990478515625	-2.3161572265625	0		-0.9795170288085937	0.21626968383789064	0		-0.7172008056640625	-2.6735634765625	0		2.34733935546875	-0.11686672973632813	0		3.847919921875	0.08286265563964844	0		4.93838720703125	-0.07654470825195313	0		5.96739697265625	0.44918145751953126	0		-0.007771986961364746	6.00570947265625	0		
-0.005160674095153809	-0.00454708194732666	0		0.49984677124023436	-2.3243798828125	0		-0.983653564453125	0.21196066284179688	0		-0.7531564331054688	-2.670329345703125	0		2.324380615234375	-0.110789794921875	0		3.819008544921875	0.09207061004638672	0		4.93832373046875	-0.07680172729492188	0		5.963171875	0.440013916015625	0		-0.008942099571228027	6.00636865234375	0		
